PathFileType	4	(X/Y/Z)	E:\Qualisys_Data\Carbon_Farble_Plate\Data\Amateur_Runner\S14\T1\S14T1V22_c3d.trc
DataRate	CameraRate	NumFrames	NumMarkers	Units	OrigDataRate	OrigDataStartFrame	OrigNumFrames
200.000000	200.000000	4	39	mm	200.000000	152	304
Frame#	Time	LSHO			RSHO			LICST			RICST			LASIS			LHEEL			RASIS			LTROC			RTROC			SACR			LTH1			LSK4			LTH2			LTH3			RHM5			LSK2			LTH4			RTH1			LTOE			RTH2			RTH3			RTH4			LLEP			RLEP			LSK1			LSK3			RSK1			LHM5			RSK2			LFT1			RSK3			RSK4			LLME			RLME			RTOE			RHEEL			RFT1			RFT2			LFT2			
		X1	Y1	Z1	X2	Y2	Z2	X3	Y3	Z3	X4	Y4	Z4	X5	Y5	Z5	X6	Y6	Z6	X7	Y7	Z7	X8	Y8	Z8	X9	Y9	Z9	X10	Y10	Z10	X11	Y11	Z11	X12	Y12	Z12	X13	Y13	Z13	X14	Y14	Z14	X15	Y15	Z15	X16	Y16	Z16	X17	Y17	Z17	X18	Y18	Z18	X19	Y19	Z19	X20	Y20	Z20	X21	Y21	Z21	X22	Y22	Z22	X23	Y23	Z23	X24	Y24	Z24	X25	Y25	Z25	X26	Y26	Z26	X27	Y27	Z27	X28	Y28	Z28	X29	Y29	Z29	X30	Y30	Z30	X31	Y31	Z31	X32	Y32	Z32	X33	Y33	Z33	X34	Y34	Z34	X35	Y35	Z35	X36	Y36	Z36	X37	Y37	Z37	X38	Y38	Z38	X39	Y39	Z39	

153	0.76	361.8395080566406	1449.6494140625	-508.9927978515625	329.0572814941406	1446.65087890625	-217.5876770019531	309.7107543945312	999.2886352539062	-505.6139526367188	336.1040344238281	990.2924194335938	-233.7963104248047	342.3114318847656	943.6527709960938	-485.0486450195312	-261.2650146484375	543.818115234375	-348.7604064941406	358.4729309082031	947.9165649414062	-256.856689453125	177.1307373046875	901.0616455078124	-523.2916870117188	219.7793884277344	898.4688110351562	-198.3240509033203	183.9921722412109	1008.708068847656	-367.3353271484375	193.8185577392578	662.321533203125	-536.9845581054688	-92.12620544433594	548.8901977539062	-461.9117126464844	121.521369934082	682.9692993164062	-509.1271667480469	174.5830688476562	564.5934448242188	-523.9480590820312	642.47119140625	112.2175903320312	-223.5227966308594	1.21205472946167	557.789306640625	-494.9200744628906	101.0039596557617	587.3062133789062	-496.3242797851562	410.2443542480469	690.9719848632812	-200.8136901855469	-327.6925048828125	302.5024719238281	-416.7386474609375	335.690673828125	663.912109375	-193.7303619384766	447.7505493164062	603.2642822265625	-234.6165771484375	369.3387756347656	570.1837158203125	-218.7964630126953	115.3711395263672	517.9620971679688	-513.7974853515625	419.1714782714844	514.8809814453125	-228.3288421630859	8.018559455871582	475.3821411132812	-500.8457946777344	-89.35768127441406	468.1828308105469	-470.316162109375	471.606201171875	402.7081298828125	-224.0188293457031	-339.7005310058594	382.9818115234375	-458.34716796875	388.8768920898438	380.1912841796875	-224.5943603515625	-280.9729309082031	528.7869262695312	-318.6716613769531	492.1416625976562	301.1383361816406	-235.2892913818359	414.6929626464844	287.0605773925781	-236.7162017822266	-255.7328948974609	501.0236511230469	-421.1612243652344	498.507080078125	119.6875839233398	-255.140380859375	703.7804565429688	159.1751098632812	-282.2369689941406	459.70751953125	70.40117645263672	-310.6915588378906	486.3329162597656	52.65012359619141	-341.8857727050781	470.7860717773438	46.81842422485352	-285.4028930664062	-291.3743896484375	553.077880859375	-368.3086547851562
154	0.765	381.1124572753906	1445.543090820312	-508.8827514648438	349.6233520507812	1441.500610351562	-216.5939788818359	329.0990295410156	994.9869384765624	-505.2473754882812	354.4099426269531	986.7998046875	-233.3757934570312	362.0448913574219	939.6680297851562	-484.4863586425781	-232.5370178222656	550.5042114257812	-349.1611938476562	377.5242004394531	944.2947387695312	-256.0275573730469	197.6208343505859	895.6844482421875	-524.4482421875	238.0613403320312	894.7667846679688	-199.0665740966797	203.2553863525391	1004.413635253906	-367.8412780761719	217.9105529785156	656.375244140625	-537.5829467773438	-64.06366729736328	548.6131591796875	-463.2890625	145.1278991699219	675.9918823242188	-510.4524536132812	200.2504119873047	558.71044921875	-524.777099609375	655.5364990234375	104.7203598022461	-228.2880554199219	29.37833786010742	554.0697021484375	-497.0484924316406	126.0669555664062	580.1858520507812	-498.0576782226562	431.9164428710938	688.4600219726562	-200.9057464599609	-304.8876037597656	310.5215759277344	-415.15869140625	356.9308471679688	661.6287231445312	-194.7075347900391	469.0335998535156	600.63037109375	-234.7687530517578	390.3120422363281	567.7686767578125	-219.8894958496094	141.6161041259766	510.9725952148438	-514.8357543945312	440.3040161132812	512.1122436523438	-228.8902587890625	34.07380676269531	471.7220153808594	-501.3566589355469	-63.56576156616211	468.0035095214844	-470.6796875	490.3750915527344	398.1857299804688	-225.2720794677734	-315.1546020507812	391.2037048339844	-457.2940368652344	407.223876953125	377.6433410644531	-224.5000305175781	-252.8390808105469	535.927490234375	-318.9477233886719	509.1209716796875	296.8220825195312	-236.3299713134766	430.7503967285156	284.1031799316406	-236.6463012695312	-228.4028015136719	506.7835693359375	-420.9571228027344	510.8975830078125	114.4564743041992	-255.6246948242188	716.2194213867188	151.2689056396484	-286.9336242675781	470.4653015136719	66.49907684326172	-310.8346252441406	496.0552673339844	48.31825637817383	-342.2575073242188	481.6083984375	42.7016487121582	-285.4321594238281	-262.5546264648438	560.2879638671875	-368.5431518554688
155	0.77	399.2905883789062	1440.911010742188	-507.8861999511719	370.1010131835938	1436.064819335938	-215.5006866455078	348.54150390625	990.6426391601562	-505.0704956054688	373.4835815429688	983.22900390625	-232.739501953125	381.7484741210938	935.519287109375	-483.9080810546875	-203.4215087890625	556.73095703125	-349.3553466796875	396.9449462890625	940.581298828125	-255.2406463623047	217.9236907958984	890.0029296875	-525.2476196289062	256.1204833984375	890.5891723632812	-199.7660675048828	222.3269500732422	999.637939453125	-368.123779296875	242.8684692382812	650.5768432617188	-538.5164794921875	-35.2478141784668	547.8877563476562	-464.9776916503906	168.4663848876953	668.626220703125	-511.6554565429688	225.6863708496094	552.42236328125	-525.6658325195312	666.8472290039062	96.97843933105467	-231.6359710693359	58.15534973144531	550.3859252929688	-498.4942321777344	151.1389617919922	572.5910034179688	-499.2628784179688	452.8311157226562	685.2464599609375	-201.2216339111328	-281.330810546875	318.0569458007812	-414.1339111328125	378.9869384765625	659.4016723632812	-197.0422210693359	488.8784790039062	596.9776000976562	-235.6426391601562	411.63916015625	565.6223754882812	-220.1156005859375	169.0122985839844	504.5539855957031	-516.6434936523438	461.0258178710938	509.0044555664062	-229.5751190185547	60.42069625854492	467.9772338867188	-502.0587768554688	-37.04147720336914	467.0333862304688	-470.121826171875	508.9542846679688	393.518798828125	-226.2505187988281	-289.5457763671875	398.3825988769531	-456.355224609375	425.4553833007812	374.7981262207031	-224.2718200683594	-223.3626251220703	543.3590087890625	-319.1160278320312	525.0925903320312	291.7568664550781	-237.7704620361328	446.8312377929688	281.0898742675781	-236.4171142578125	-199.9217834472656	512.282958984375	-421.08349609375	522.618408203125	110.1716842651367	-256.4899597167969	727.8406982421875	141.6620330810547	-291.3231201171875	480.0474243164062	65.42115783691406	-311.4388122558594	503.8522338867188	45.54877090454102	-343.2697143554688	489.7197265625	42.05324935913086	-285.7625122070312	-232.830322265625	567.3452758789062	-368.880859375
156	0.775	418.2659301757812	1436.368286132812	-507.3551635742188	390.7699890136719	1430.499145507812	-214.4608001708984	368.0246887207031	985.921142578125	-505.2085266113281	392.46923828125	979.1466064453124	-232.1665191650391	401.3938903808594	931.093505859375	-483.6962585449219	-173.4771881103516	562.4901733398438	-349.6717834472656	417.0240783691406	937.0128784179688	-253.6552124023438	238.5882873535156	883.8524780273438	-525.8565673828125	275.0672302246094	886.0118408203125	-200.4779357910156	241.6439208984375	994.9447631835938	-368.7921752929688	267.3757629394531	644.32373046875	-538.767578125	-6.413895606994629	547.0628662109375	-466.0123291015625	192.1400299072266	660.8063354492188	-512.9370727539062	252.0725250244141	545.9720458984375	-526.280517578125	675.9948120117188	87.95243835449219	-235.1100311279297	87.22584533691406	546.4589233398438	-500.6061401367188	176.6952972412109	564.5451049804688	-500.7201843261719	474.6989440917969	681.8932495117188	-201.4489440917969	-256.7983093261719	325.3398132324219	-413.0108642578125	400.829833984375	656.8827514648438	-198.1836242675781	510.4207153320312	594.0057983398438	-236.2619781494141	433.6765441894531	562.7442016601562	-221.9905090332031	195.5652618408203	497.2417297363281	-518.1121215820312	481.6881408691406	505.522216796875	-230.0321807861328	87.06144714355469	463.69580078125	-502.5812377929688	-10.07417583465576	465.8182067871094	-470.3705139160156	527.0344848632812	388.6494140625	-227.2987213134766	-263.4396362304688	405.8332214355469	-455.7725219726562	443.33837890625	371.7091674804688	-224.1560516357422	-194.0693817138672	549.4257202148438	-319.8943481445312	540.515625	286.3976745605469	-239.4803161621094	462.0071105957031	277.5791625976562	-236.4282989501953	-171.2628784179688	517.1539306640625	-421.5404663085938	533.5209350585938	105.9433975219727	-257.8440856933594	738.4821166992188	129.2463226318359	-296.27587890625	487.9367370605469	67.6228256225586	-311.9521789550781	508.6922607421875	44.77069473266602	-343.7269592285156	495.3489685058594	44.25862503051758	-286.2872924804688	-202.8187408447266	573.5880126953125	-369.6090698242188
